<svg width="40" height="40" viewBox="0 0 40 40" fill="none" xmlns="http://www.w3.org/2000/svg">
<path d="M0 20C0 8.95431 8.95431 0 20 0C31.0457 0 40 8.95431 40 20C40 31.0457 31.0457 40 20 40C8.95431 40 0 31.0457 0 20Z" fill="#FAFAFA"/>
<path d="M24.2785 19.1588C24.6969 19.6825 24.6674 20.4546 24.1892 20.9427L17.6583 27.6095C17.1482 28.1302 16.3213 28.1302 15.8112 27.6095C15.3012 27.0888 15.3012 26.2447 15.8112 25.724L21.4186 20L15.8112 14.276C15.3012 13.7553 15.3012 12.9112 15.8112 12.3905C16.3213 11.8698 17.1482 11.8698 17.6583 12.3905L24.1892 19.0573L24.2785 19.1588Z" fill="#815630"/>
</svg>
