<svg width="36" height="36" viewBox="0 0 36 36" fill="none" xmlns="http://www.w3.org/2000/svg">
<path d="M0 4C0 1.79086 1.79086 0 4 0H32C34.2091 0 36 1.79086 36 4V32C36 34.2091 34.2091 36 32 36H4C1.79086 36 0 34.2091 0 32V4Z" fill="#BDBDBD"/>
<path d="M17 19H24C24.2652 19 24.5196 18.8946 24.7071 18.7071C24.8946 18.5196 25 18.2652 25 18C25 17.7348 24.8946 17.4804 24.7071 17.2929C24.5196 17.1054 24.2652 17 24 17H17H12C11.7348 17 11.4804 17.1054 11.2929 17.2929C11.1054 17.4804 11 17.7348 11 18C11 18.2652 11.1054 18.5196 11.2929 18.7071C11.4804 18.8946 11.7348 19 12 19H17Z" fill="#FAFAFA"/>
</svg>
