<svg width="24" height="24" viewBox="0 0 24 24" fill="none" xmlns="http://www.w3.org/2000/svg">
<g clip-path="url(#clip0_2148_5713)">
<path d="M23.8676 5.56931C23.8087 5.48984 23.7326 5.42541 23.6454 5.38107C23.5581 5.33673 23.462 5.31368 23.3646 5.31373H4.80658L3.7657 1.47343C3.72868 1.33727 3.64917 1.21727 3.53932 1.13177C3.42947 1.04628 3.29532 0.999999 3.15737 1H0.631475C0.463997 1 0.303379 1.06817 0.184955 1.18952C0.0665302 1.31087 0 1.47545 0 1.64706C0 1.81867 0.0665302 1.98325 0.184955 2.1046C0.303379 2.22595 0.463997 2.29412 0.631475 2.29412H2.67745L6.41999 16.0862C6.55654 16.5844 6.84777 17.0235 7.24959 17.337C7.65142 17.6504 8.14197 17.8212 8.647 17.8235H19.0495C19.5552 17.8222 20.0468 17.6518 20.4494 17.3383C20.8521 17.0247 21.144 16.5851 21.2807 16.0862L23.9782 6.13441C24.0036 6.03787 24.0069 5.93661 23.9877 5.83856C23.9685 5.74051 23.9274 5.64835 23.8676 5.56931ZM20.0577 15.74C19.9964 15.9661 19.8647 16.1654 19.6828 16.3079C19.5008 16.4504 19.2785 16.5281 19.0495 16.5294H8.647C8.4171 16.5293 8.19357 16.4521 8.01055 16.3095C7.82753 16.167 7.69509 15.9669 7.63348 15.74L5.15704 6.60784H22.5342L20.0577 15.74ZM9.68261 21.4902C9.68261 21.7888 9.5962 22.0807 9.43429 22.329C9.27239 22.5773 9.04227 22.7708 8.77303 22.8851C8.5038 22.9993 8.20754 23.0292 7.92172 22.971C7.6359 22.9127 7.37336 22.7689 7.16729 22.5578C6.96123 22.3466 6.8209 22.0776 6.76404 21.7847C6.70719 21.4919 6.73637 21.1883 6.84789 20.9124C6.95941 20.6365 7.14827 20.4007 7.39057 20.2348C7.63288 20.0689 7.91775 19.9804 8.20917 19.9804C8.59995 19.9804 8.97473 20.1395 9.25105 20.4226C9.52738 20.7057 9.68261 21.0898 9.68261 21.4902ZM20.6282 21.4902C20.6282 21.7888 20.5418 22.0807 20.3799 22.329C20.218 22.5773 19.9878 22.7708 19.7186 22.8851C19.4494 22.9993 19.1531 23.0292 18.8673 22.971C18.5815 22.9127 18.3189 22.7689 18.1129 22.5578C17.9068 22.3466 17.7665 22.0776 17.7096 21.7847C17.6528 21.4919 17.6819 21.1883 17.7935 20.9124C17.905 20.6365 18.0938 20.4007 18.3361 20.2348C18.5784 20.0689 18.8633 19.9804 19.1547 19.9804C19.5455 19.9804 19.9203 20.1395 20.1966 20.4226C20.4729 20.7057 20.6282 21.0898 20.6282 21.4902Z" fill="#815630"/>
</g>
<defs>
<clipPath id="clip0_2148_5713">
<rect width="24" height="24" fill="white" transform="translate(24) rotate(90)"/>
</clipPath>
</defs>
</svg>
