<svg width="40" height="40" viewBox="0 0 40 40" fill="none" xmlns="http://www.w3.org/2000/svg">
<g clip-path="url(#clip0_332_3409)">
<path d="M0 20C0 8.95431 8.95431 0 20 0C31.0457 0 40 8.95431 40 20C40 31.0457 31.0457 40 20 40C8.95431 40 0 31.0457 0 20Z" fill="#FAFAFA"/>
<path d="M10 17.7176C10 20.5983 12.9311 23.6222 15.62 25.789C17.4489 27.263 18.3644 28 20 28C21.6356 28 22.5511 27.263 24.38 25.789C27.0689 23.62 30 20.5983 30 17.7155C30 12.0785 24.5 9.97482 20 14.3295C15.5 9.97482 10 12.0806 10 17.7176Z" fill="#815630"/>
</g>
<defs>
<clipPath id="clip0_332_3409">
<path d="M0 20C0 8.95431 8.95431 0 20 0C31.0457 0 40 8.95431 40 20C40 31.0457 31.0457 40 20 40C8.95431 40 0 31.0457 0 20Z" fill="white"/>
</clipPath>
</defs>
</svg>
